#!OML:ASF H:\BreakDance\Project 1\Capture day 1\Session 1\Male.ASF
:FULLY-SPECIFIED
:DEGREES
120
root 14.7127 16.0809 4.94037 66.9371 -85.4618 -59.0168
lowerback 1.31957 1.40919 -3.67216
upperback 4.83065 1.87872 -2.30568
thorax 4.20417 0.791196 -0.286752
lowerneck 6.49002 -1.07976 -1.4603
upperneck -11.929 -0.839743 7.49375
head -4.59394 -0.856131 2.60777
rclavicle -5.56597e-015 -5.08889e-014
rhumerus -0.080847 23.3113 -97.8515
rradius 35.5642
rwrist 13.2495
rhand -37.4771 -21.4136
rfingers 7.12502
rthumb -10.5349 -51.1296
lclavicle -5.56597e-015 -5.08889e-014
lhumerus -4.01734 -25.8886 83.3542
lradius 24.1041
lwrist -4.0986
lhand -30.2219 -31.2819
lfingers 7.12502
lthumb -3.53179 -1.33138
rfemur -49.4104 4.05574 18.6542
rtibia 44.9081
rfoot -0.474154 5.31815
rtoes -3.88621
lfemur -36.9756 13.6335 -23.1886
ltibia 51.9992
lfoot -27.12 5.36581
ltoes -19.2421
121
root 14.7523 16.1848 4.94014 51.4035 -84.2659 -43.0062
lowerback 1.34629 1.23848 -3.47037
upperback 4.73443 1.65065 -2.3111
thorax 4.09808 0.690714 -0.410351
lowerneck 6.30545 -1.41076 -1.58748
upperneck -12.07 -1.2655 7.80881
head -4.58143 -1.08093 2.75039
rclavicle 9.93923e-015 1.90833e-014
rhumerus 0.00930425 24.0372 -98.1047
rradius 36.4934
rwrist 12.807
rhand -37.4474 -21.1547
rfingers 7.12502
rthumb -10.5062 -50.8721
lclavicle 9.93923e-015 1.90833e-014
lhumerus -3.05338 -27.2169 83.2236
lradius 24.68
lwrist -4.02399
lhand -30.2627 -31.625
lfingers 7.12502
lthumb -3.57118 -1.6752
rfemur -49.5028 4.05826 19.3893
rtibia 45.4199
rfoot -0.174305 6.26282
rtoes -2.219
lfemur -36.8416 12.7005 -23.174
ltibia 50.4141
lfoot -26.0927 4.17405
ltoes -19.7987
122
root 14.791 16.284 4.94047 41.3342 -82.6968 -32.4361
lowerback 1.39036 1.0401 -3.2247
upperback 4.61384 1.38436 -2.30585
thorax 3.95643 0.573153 -0.548179
lowerneck 6.0588 -1.75185 -1.6966
upperneck -12.1356 -1.71233 8.07202
head -4.53292 -1.31035 2.87197
rclavicle -8.34896e-015 -2.38542e-014
rhumerus 0.0485879 24.7661 -98.3014
rradius 37.4635
rwrist 12.2687
rhand -37.3066 -20.9535
rfingers 7.12502
rthumb -10.3704 -50.6777
lclavicle -8.34896e-015 -2.38542e-014
lhumerus -2.13611 -28.5662 83.1112
lradius 25.3478
lwrist -3.81387
lhand -30.2457 -31.9412
lfingers 7.12502
lthumb -3.55477 -1.99106
rfemur -49.6323 4.17716 20.0175
rtibia 45.9264
rfoot 0.117274 7.1939
rtoes -0.680776
lfemur -36.7729 11.7503 -23.1436
ltibia 48.9178
lfoot -25.1389 2.78895
ltoes -21.4561
123
root 14.8293 16.3763 4.94174 34.808 -80.8557 -25.4001
lowerback 1.44602 0.807702 -2.93124
upperback 4.47787 1.07187 -2.2719
thorax 3.79086 0.433751 -0.683453
lowerneck 5.75951 -2.10126 -1.81512
upperneck -12.1376 -2.17936 8.28876
head -4.45361 -1.54346 2.97816
rclavicle 2.34566e-014 3.18055e-015
rhumerus 0.0394061 25.5108 -98.4237
rradius 38.4858
rwrist 11.6758
rhand -37.0786 -20.7846
rfingers 7.12502
rthumb -10.1505 -50.5198
lclavicle 2.34566e-014 3.18055e-015
lhumerus -1.27931 -29.8846 83.0414
lradius 26.1133
lwrist -3.51565
lhand -30.1907 -32.2608
lfingers 7.12502
lthumb -3.50164 -2.30977
rfemur -49.79 4.38736 20.5656
rtibia 46.4211
rfoot 0.420176 8.12292
rtoes 0.778333
lfemur -36.7658 10.7599 -23.0672
ltibia 47.5528
lfoot -24.3622 1.21991
ltoes -24.3134
124
root 14.8674 16.4606 4.94419 30.4401 -78.7963 -20.5346
lowerback 1.49466 0.538138 -2.60493
upperback 4.34502 0.710171 -2.18959
thorax 3.63002 0.269351 -0.787111
lowerneck 5.41824 -2.46079 -1.96838
upperneck -12.0938 -2.6702 8.45819
head -4.35045 -1.78151 3.07289
rclavicle -5.00937e-014 -9.54166e-015
rhumerus 0.00203757 26.2976 -98.4378
rradius 39.5692
rwrist 11.017
rhand -36.8352 -20.6372
rfingers 7.12502
rthumb -9.91565 -50.3837
lclavicle -5.00937e-014 -9.54166e-015
lhumerus -0.470768 -31.1599 83.0365
lradius 26.9589
lwrist -3.13408
lhand -30.1593 -32.6341
lfingers 7.12502
lthumb -3.47127 -2.68265
rfemur -49.9602 4.66575 21.0468
rtibia 46.8993
rfoot 0.7449 9.04873
rtoes 2.1542
lfemur -36.7942 9.71597 -22.9273
ltibia 46.3454
lfoot -23.8827 -0.501307
ltoes -27.8725
125
root 14.9056 16.5364 4.94759 27.4172 -76.5804 -17.0507
lowerback 1.54098 0.240477 -2.24687
upperback 4.21577 0.311201 -2.07096
thorax 3.47158 0.0858831 -0.870752
lowerneck 5.077 -2.82985 -2.15022
upperneck -12.0285 -3.18072 8.58425
head -4.2384 -2.02455 3.15696
rclavicle -2.10712e-014 -3.18055e-015
rhumerus -0.0719232 27.0979 -98.3675
rradius 40.7159
rwrist 10.3103
rhand -36.6335 -20.5656
rfingers 7.12502
rthumb -9.72101 -50.3213
lclavicle -2.10712e-014 -3.18055e-015
lhumerus 0.267152 -32.4145 83.0897
lradius 27.8845
lwrist -2.64156
lhand -30.1924 -33.0727
lfingers 7.12502
lthumb -3.50326 -3.12171
rfemur -50.1187 5.02315 21.46
rtibia 47.353
rfoot 1.09426 9.96662
rtoes 3.36464
lfemur -36.8152 8.65333 -22.7261
ltibia 45.3082
lfoot -23.7952 -2.32149
ltoes -31.5
126
root 14.9439 16.6037 4.95236 25.1602 -74.2475 -14.3961
lowerback 1.59992 -0.0818316 -1.8489
upperback 4.08801 -0.120775 -1.93727
thorax 3.30462 -0.114083 -0.960597
lowerneck 4.77273 -3.20312 -2.37297
upperneck -11.9521 -3.70136 8.68643
head -4.12683 -2.26954 3.23887
rclavicle -3.18055e-015 -2.06736e-014
rhumerus -0.194328 27.8943 -98.2376
rradius 41.9112
rwrist 9.60218
rhand -36.494 -20.6183
rfingers 7.12502
rthumb -9.58648 -50.3802
lclavicle -3.18055e-015 -2.06736e-014
lhumerus 0.899473 -33.6523 83.2007
lradius 28.8852
lwrist -2.04688
lhand -30.306 -33.6123
lfingers 7.12502
lthumb -3.613 -3.66319
rfemur -50.2286 5.4644 21.7796
rtibia 47.7701
rfoot 1.4599 10.8591
rtoes 4.29307
lfemur -36.772 7.59804 -22.4943
ltibia 44.4443
lfoot -24.1214 -4.08535
ltoes -34.5752
127
root 14.9826 16.6621 4.95825 23.3777 -71.8698 -12.2921
lowerback 1.67384 -0.411834 -1.44352
upperback 3.95684 -0.562871 -1.79315
thorax 3.12235 -0.320264 -1.04241
lowerneck 4.52486 -3.57121 -2.66295
upperneck -11.8608 -4.21943 8.78186
head -4.01744 -2.51037 3.32813
rclavicle 9.14409e-015 -1.27222e-014
rhumerus -0.36265 28.7058 -98.0439
rradius 43.1364
rwrist 8.9088
rhand -36.42 -20.7313
rfingers 7.12502
rthumb -9.51506 -50.4965
lclavicle 9.14409e-015 -1.27222e-014
lhumerus 1.42544 -34.8728 83.378
lradius 29.9287
lwrist -1.36761
lhand -30.4778 -34.2261
lfingers 7.12502
lthumb -3.77891 -4.27985
rfemur -50.2706 6.00967 21.9923
rtibia 48.1339
rfoot 1.8499 11.7254
rtoes 4.81843
lfemur -36.6193 6.60418 -22.2668
ltibia 43.7545
lfoot -24.8198 -5.51105
ltoes -36.7894
128
root 15.0229 16.7114 4.96476 21.881 -69.5113 -10.5385
lowerback 1.7499 -0.732665 -1.06077
upperback 3.81633 -0.991768 -1.65469
thorax 2.92637 -0.521762 -1.11537
lowerneck 4.33982 -3.9293 -2.9906
upperneck -11.7587 -4.72705 8.85762
head -3.9137 -2.74411 3.41616
rclavicle 7.79236e-014 -1.27222e-014
rhumerus -0.560307 29.5264 -97.7937
rradius 44.3772
rwrist 8.2249
rhand -36.3776 -20.8339
rfingers 7.12502
rthumb -9.47419 -50.6009
lclavicle 7.79236e-014 -1.27222e-014
lhumerus 1.87154 -36.0884 83.6054
lradius 30.9765
lwrist -0.627862
lhand -30.6672 -34.8322
lfingers 7.12502
lthumb -3.96176 -4.88931
rfemur -50.2482 6.64675 22.0958
rtibia 48.4268
rfoot 2.30052 12.587
rtoes 5.19232
lfemur -36.3369 5.70408 -22.0781
ltibia 43.2384
lfoot -25.794 -6.2841
ltoes -38.1297
129
root 15.0652 16.7518 4.97164 20.5058 -67.2093 -8.95856
lowerback 1.79859 -1.0333 -0.738587
upperback 3.68014 -1.39208 -1.53705
thorax 2.74866 -0.711764 -1.17442
lowerneck 4.18748 -4.28416 -3.30001
upperneck -11.6442 -5.23284 8.87825
head -3.81234 -2.97525 3.48276
rclavicle -5.84427e-014 3.97569e-015
rhumerus -0.74186 30.3685 -97.4653
rradius 45.6236
rwrist 7.56152
rhand -36.3367 -20.9028
rfingers 7.12502
rthumb -9.43465 -50.6716
lclavicle -5.84427e-014 3.97569e-015
lhumerus 2.30327 -37.3183 83.8508
lradius 31.9879
lwrist 0.150567
lhand -30.8607 -35.3901
lfingers 7.12502
lthumb -4.14862 -5.45076
rfemur -50.1587 7.30117 22.0938
rtibia 48.6385
rfoot 2.85977 13.4992
rtoes 5.90074
lfemur -35.9022 4.88912 -21.9649
ltibia 42.8895
lfoot -26.9156 -6.11832
ltoes -38.835
130
root 15.1101 16.7832 4.97868 19.1468 -64.9784 -7.44916
lowerback 1.8152 -1.31143 -0.517583
upperback 3.562 -1.76137 -1.44175
thorax 2.6082 -0.889749 -1.19939
lowerneck 4.04256 -4.64171 -3.5602
upperneck -11.4964 -5.74451 8.83072
head -3.70434 -3.20762 3.51812
rclavicle 2.46493e-014 6.36111e-015
rhumerus -0.870054 31.2293 -97.0383
rradius 46.8806
rwrist 6.82394
rhand -36.2434 -20.7917
rfingers 7.12502
rthumb -9.34468 -50.5646
lclavicle 2.46493e-014 6.36111e-015
lhumerus 2.7734 -38.5554 84.0975
lradius 32.929
lwrist 0.923578
lhand -31.1079 -35.8382
lfingers 7.12502
lthumb -4.38733 -5.90369
rfemur -49.9841 7.88644 22.0051
rtibia 48.7719
rfoot 3.54155 14.5022
rtoes 7.07462
lfemur -35.2772 4.1539 -21.9457
ltibia 42.6937
lfoot -28.0341 -4.93741
ltoes -38.9211
